<svg width="27" height="16" viewBox="0 0 27 16" fill="none" xmlns="http://www.w3.org/2000/svg">
<path fill-rule="evenodd" clip-rule="evenodd" d="M5.40985 2.61548C5.68599 2.61548 5.90985 2.83934 5.90985 3.11548V8.46539C5.90985 8.74154 5.68599 8.96539 5.40985 8.96539C5.13371 8.96539 4.90985 8.74154 4.90985 8.46539V3.11548C4.90985 2.83934 5.13371 2.61548 5.40985 2.61548Z" fill="#EDEDED"/>
<path fill-rule="evenodd" clip-rule="evenodd" d="M9.34363 2.61548C9.61977 2.61548 9.84363 2.83934 9.84363 3.11548V8.46539C9.84363 8.74154 9.61977 8.96539 9.34363 8.96539C9.06749 8.96539 8.84363 8.74154 8.84363 8.46539V3.11548C8.84363 2.83934 9.06749 2.61548 9.34363 2.61548Z" fill="#EDEDED"/>
<path fill-rule="evenodd" clip-rule="evenodd" d="M13.2774 2.61548C13.5535 2.61548 13.7774 2.83934 13.7774 3.11548V8.46539C13.7774 8.74154 13.5535 8.96539 13.2774 8.96539C13.0013 8.96539 12.7774 8.74154 12.7774 8.46539V3.11548C12.7774 2.83934 13.0013 2.61548 13.2774 2.61548Z" fill="#EDEDED"/>
<path fill-rule="evenodd" clip-rule="evenodd" d="M17.2112 2.61548C17.4873 2.61548 17.7112 2.83934 17.7112 3.11548V8.46539C17.7112 8.74154 17.4873 8.96539 17.2112 8.96539C16.935 8.96539 16.7112 8.74154 16.7112 8.46539V3.11548C16.7112 2.83934 16.935 2.61548 17.2112 2.61548Z" fill="#EDEDED"/>
<path fill-rule="evenodd" clip-rule="evenodd" d="M21.145 2.61548C21.4211 2.61548 21.645 2.83934 21.645 3.11548V8.46539C21.645 8.74154 21.4211 8.96539 21.145 8.96539C20.8688 8.96539 20.645 8.74154 20.645 8.46539V3.11548C20.645 2.83934 20.8688 2.61548 21.145 2.61548Z" fill="#EDEDED"/>
<path fill-rule="evenodd" clip-rule="evenodd" d="M26.0622 12.6238L0.531985 12.6239C0.255842 12.6239 0.0319837 12.4 0.0319824 12.1239C0.0319812 11.8478 0.255838 11.6239 0.53198 11.6239L26.0622 11.6238C26.3383 11.6238 26.5622 11.8476 26.5622 12.1238C26.5622 12.3999 26.3383 12.6238 26.0622 12.6238Z" fill="#EDEDED"/>
<path fill-rule="evenodd" clip-rule="evenodd" d="M23.5986 1.96277H3.21863V9.32385H23.5986V1.96277ZM3.21863 0.962769C2.66634 0.962769 2.21863 1.41048 2.21863 1.96277V9.32385C2.21863 9.87614 2.66634 10.3239 3.21863 10.3239H23.5986C24.1509 10.3239 24.5986 9.87614 24.5986 9.32385V1.96277C24.5986 1.41048 24.1509 0.962769 23.5986 0.962769H3.21863Z" fill="#EDEDED"/>
<path fill-rule="evenodd" clip-rule="evenodd" d="M3.99373 14.5855C4.39737 14.5855 4.72458 14.2583 4.72458 13.8546C4.72458 13.451 4.39737 13.1238 3.99373 13.1238C3.59009 13.1238 3.26288 13.451 3.26288 13.8546C3.26288 14.2583 3.59009 14.5855 3.99373 14.5855ZM3.99373 15.5855C4.94965 15.5855 5.72458 14.8106 5.72458 13.8546C5.72458 12.8987 4.94965 12.1238 3.99373 12.1238C3.03781 12.1238 2.26288 12.8987 2.26288 13.8546C2.26288 14.8106 3.03781 15.5855 3.99373 15.5855Z" fill="#EDEDED"/>
<path fill-rule="evenodd" clip-rule="evenodd" d="M7.1407 14.5855C7.54434 14.5855 7.87155 14.2583 7.87155 13.8546C7.87155 13.451 7.54434 13.1238 7.1407 13.1238C6.73706 13.1238 6.40985 13.451 6.40985 13.8546C6.40985 14.2583 6.73706 14.5855 7.1407 14.5855ZM7.1407 15.5855C8.09662 15.5855 8.87155 14.8106 8.87155 13.8546C8.87155 12.8987 8.09662 12.1238 7.1407 12.1238C6.18478 12.1238 5.40985 12.8987 5.40985 13.8546C5.40985 14.8106 6.18478 15.5855 7.1407 15.5855Z" fill="#EDEDED"/>
<path fill-rule="evenodd" clip-rule="evenodd" d="M20.0828 14.5855C20.4865 14.5855 20.8137 14.2583 20.8137 13.8546C20.8137 13.451 20.4865 13.1238 20.0828 13.1238C19.6792 13.1238 19.352 13.451 19.352 13.8546C19.352 14.2583 19.6792 14.5855 20.0828 14.5855ZM20.0828 15.5855C21.0388 15.5855 21.8137 14.8106 21.8137 13.8546C21.8137 12.8987 21.0388 12.1238 20.0828 12.1238C19.1269 12.1238 18.352 12.8987 18.352 13.8546C18.352 14.8106 19.1269 15.5855 20.0828 15.5855Z" fill="#EDEDED"/>
<path fill-rule="evenodd" clip-rule="evenodd" d="M22.8758 14.5855C23.2794 14.5855 23.6067 14.2583 23.6067 13.8546C23.6067 13.451 23.2794 13.1238 22.8758 13.1238C22.4722 13.1238 22.145 13.451 22.145 13.8546C22.145 14.2583 22.4722 14.5855 22.8758 14.5855ZM22.8758 15.5855C23.8317 15.5855 24.6067 14.8106 24.6067 13.8546C24.6067 12.8987 23.8317 12.1238 22.8758 12.1238C21.9199 12.1238 21.145 12.8987 21.145 13.8546C21.145 14.8106 21.9199 15.5855 22.8758 15.5855Z" fill="#EDEDED"/>
</svg>
